<?xml version="1.0" encoding="utf-8"?>
<!-- Generator: Adobe Illustrator 19.0.0, SVG Export Plug-In . SVG Version: 6.00 Build 0)  -->
<svg version="1.1" id="Layer_1" xmlns="http://www.w3.org/2000/svg" xmlns:xlink="http://www.w3.org/1999/xlink" x="0px" y="0px"
	 viewBox="123 60.9 366.6 1.1" style="enable-background:new 123 60.9 366.6 1.1;" xml:space="preserve">
<style type="text/css">
	.st0{fill:none;stroke:#000000;stroke-width:0.2;stroke-miterlimit:10;}
</style>
<line id="XMLID_1_" class="st0" x1="246" y1="122.9" x2="612.8" y2="122.9"/>
<line id="XMLID_69_" class="st0" x1="271.1" y1="122.9" x2="271.1" y2="122.1"/>
<line id="XMLID_70_" class="st0" x1="298.8" y1="122.9" x2="298.8" y2="122.1"/>
<line id="XMLID_71_" class="st0" x1="316.1" y1="122.9" x2="316.1" y2="122.2"/>
<line id="XMLID_72_" class="st0" x1="332" y1="122.9" x2="332" y2="122.2"/>
<line id="XMLID_73_" class="st0" x1="346.6" y1="122.9" x2="346.6" y2="122.2"/>
<line id="XMLID_74_" class="st0" x1="362.1" y1="122.9" x2="362.1" y2="122.1"/>
<line id="XMLID_75_" class="st0" x1="376.6" y1="122.9" x2="376.6" y2="122.1"/>
<line id="XMLID_76_" class="st0" x1="395.9" y1="122.9" x2="395.9" y2="122.1"/>
<line id="XMLID_77_" class="st0" x1="417.5" y1="122.9" x2="417.5" y2="122.1"/>
<line id="XMLID_78_" class="st0" x1="438.6" y1="122.9" x2="438.6" y2="122.1"/>
<line id="XMLID_79_" class="st0" x1="461.5" y1="122.9" x2="461.5" y2="122.1"/>
<line id="XMLID_80_" class="st0" x1="482" y1="122.9" x2="482" y2="122.1"/>
<line id="XMLID_81_" class="st0" x1="501.8" y1="122.9" x2="501.8" y2="122.1"/>
<line id="XMLID_82_" class="st0" x1="520.4" y1="122.9" x2="520.4" y2="122.1"/>
<line id="XMLID_83_" class="st0" x1="536.3" y1="122.9" x2="536.3" y2="122.1"/>
<line id="XMLID_84_" class="st0" x1="555.2" y1="122.9" x2="555.2" y2="122.1"/>
<line id="XMLID_85_" class="st0" x1="572.5" y1="122.9" x2="572.5" y2="122.1"/>
<line id="XMLID_2_" class="st0" x1="589" y1="122.9" x2="589" y2="122.1"/>
<line class="st0" x1="271.5" y1="122.3" x2="271.7" y2="122.5"/>
</svg>
