<svg version="1.1" id="Layer_1" xmlns="http://www.w3.org/2000/svg" xmlns:xlink="http://www.w3.org/1999/xlink" x="0px" y="0px"
	 viewBox="123 60.9 366.6 1.1" style="enable-background:new 123 60.9 366.6 1.1;" xml:space="preserve">
<style type="text/css">
	.st0{fill:none;stroke:#000000;stroke-width:0.2;stroke-miterlimit:10;}
</style>
<line id="XMLID_1_" class="st0" x1="123" y1="62" x2="489.8" y2="62"/>
<line id="XMLID_69_" class="st0" x1="148.1" y1="62" x2="148.1" y2="61.2"/>
<line id="XMLID_70_" class="st0" x1="175.8" y1="62" x2="175.8" y2="61.2"/>
<line id="XMLID_71_" class="st0" x1="193.1" y1="62" x2="193.1" y2="61.3"/>
<line id="XMLID_72_" class="st0" x1="209" y1="62" x2="209" y2="61.3"/>
<line id="XMLID_73_" class="st0" x1="223.6" y1="62" x2="223.6" y2="61.3"/>
<line id="XMLID_74_" class="st0" x1="239.1" y1="62" x2="239.1" y2="61.2"/>
<line id="XMLID_75_" class="st0" x1="253.6" y1="62" x2="253.6" y2="61.2"/>
<line id="XMLID_76_" class="st0" x1="272.9" y1="62" x2="272.9" y2="61.2"/>
<line id="XMLID_77_" class="st0" x1="294.5" y1="62" x2="294.5" y2="61.2"/>
<line id="XMLID_78_" class="st0" x1="315.6" y1="62" x2="315.6" y2="61.2"/>
<line id="XMLID_79_" class="st0" x1="338.5" y1="62" x2="338.5" y2="61.2"/>
<line id="XMLID_80_" class="st0" x1="359" y1="62" x2="359" y2="61.2"/>
<line id="XMLID_81_" class="st0" x1="378.8" y1="62" x2="378.8" y2="61.2"/>
<line id="XMLID_82_" class="st0" x1="397.4" y1="62" x2="397.4" y2="61.2"/>
<line id="XMLID_83_" class="st0" x1="413.3" y1="62" x2="413.3" y2="61.2"/>
<line id="XMLID_84_" class="st0" x1="432.2" y1="62" x2="432.2" y2="61.2"/>
<line id="XMLID_85_" class="st0" x1="449.5" y1="62" x2="449.5" y2="61.2"/>
<line id="XMLID_2_" class="st0" x1="468" y1="62" x2="468" y2="61.2"/>
</svg>
